<svg width="48" height="48" viewBox="0 0 48 48" fill="none" xmlns="http://www.w3.org/2000/svg">
<rect width="48" height="48" rx="24" fill="#F5F5F5"/>
<path d="M18.94 17C18.9397 17.5305 18.7288 18.0391 18.3535 18.4139C17.9782 18.7888 17.4694 18.9993 16.939 18.999C16.4086 18.9988 15.9 18.7878 15.5251 18.4125C15.1502 18.0373 14.9397 17.5285 14.94 16.998C14.9403 16.4676 15.1512 15.959 15.5265 15.5841C15.9018 15.2092 16.4106 14.9988 16.941 14.999C17.4714 14.9993 17.98 15.2103 18.3549 15.5855C18.7298 15.9608 18.9403 16.4696 18.94 17ZM19 20.48H15V33H19V20.48ZM25.32 20.48H21.34V33H25.28V26.43C25.28 22.77 30.05 22.43 30.05 26.43V33H34V25.07C34 18.9 26.94 19.13 25.28 22.16L25.32 20.48Z" fill="#131946"/>
</svg>
