<svg width="29" height="17" viewBox="0 0 29 17" fill="none" xmlns="http://www.w3.org/2000/svg">
<path d="M8.00385 8.92812C7.97556 8.98452 7.93399 9.03202 7.88328 9.06593C7.83257 9.09984 7.77446 9.11897 7.71472 9.12144C7.51303 9.12471 7.18465 8.8506 7.12775 8.80251C7.07084 8.75441 6.57675 8.1999 6.19779 8.03203C5.99374 7.93877 5.7725 7.89661 5.55093 7.90874C5.32936 7.92088 5.11331 7.98701 4.91922 8.10208C4.91922 8.10208 4.0357 8.57673 3.51349 10.2529C2.99128 11.929 2.98321 13.2867 3.54554 13.7765C4.10787 14.2664 4.76657 13.8879 5.20702 13.6906C5.64746 13.4933 6.38685 13.0203 6.63563 12.9946C6.88442 12.9689 7.04491 13.0376 6.9566 13.5017C6.72374 14.3666 6.42577 15.2099 6.06567 16.0233C5.67946 16.3336 5.24557 16.5692 4.78358 16.7195C4.12749 16.9242 3.43378 16.9482 2.76669 16.7895C2.02642 16.5768 1.36337 16.1297 0.864272 15.5068C0.246122 14.7935 -0.123245 13.3292 0.0376704 11.5933C0.198586 9.85736 1.15319 7.92346 2.24492 6.74604C3.33666 5.56861 4.31631 5.17333 5.27875 5.13037C5.83606 5.13267 6.3855 5.27153 6.88495 5.53632C7.3844 5.80112 7.8206 6.18481 8.16017 6.65802C8.1903 6.70738 8.21243 6.76185 8.2256 6.81912C8.2256 6.81912 8.29276 8.52934 8.00385 8.92812Z" fill="white"/>
<path d="M12.9099 5.45166L10.2062 16.8847H8.52726C8.52726 16.8847 7.75083 16.9169 7.53976 16.6204C7.3287 16.3239 7.37122 16.0526 7.49768 15.4087C7.62415 14.7648 9.40598 7.17277 9.40598 7.17277C9.40598 7.17277 9.6528 6.1154 9.88763 5.84505C10.1225 5.5747 10.4179 5.45189 10.953 5.45189L12.9099 5.45166Z" fill="white"/>
<path d="M12.4221 0.357362C12.4221 0.357362 13.2829 0.318843 13.7284 0.827766C13.892 1.01046 13.992 1.24771 14.0119 1.49988C14.0317 1.75205 13.9701 2.00388 13.8374 2.2133C13.663 2.49694 13.1994 3.2832 11.766 3.2832C10.3326 3.2832 10.3154 2.2908 10.3154 2.12319C10.332 1.75633 10.4759 1.40931 10.7187 1.14993C10.9311 0.892247 11.1937 0.687686 11.4881 0.550726C11.7824 0.413765 12.1013 0.347753 12.4221 0.357362Z" fill="white"/>
<path d="M14.9555 5.45091H13.5891L13.0113 7.94537H14.3777L12.2409 16.8859H14.408C14.408 16.8859 15.3349 16.9235 15.66 15.6088C15.9851 14.2941 17.4658 7.95238 17.4658 7.95238H18.6938C18.8614 7.95649 19.0278 7.92135 19.1814 7.84941C19.2814 7.79274 19.367 7.71094 19.431 7.61102C19.4949 7.5111 19.5353 7.39606 19.5486 7.27576C19.6508 6.84383 19.8551 5.99888 19.8551 5.99888C19.8734 5.93404 19.8764 5.86535 19.8638 5.79898C19.8512 5.7326 19.8234 5.67061 19.783 5.61855C19.6551 5.5036 19.4919 5.44383 19.3251 5.45091H18.1171L19.1046 1.3966C19.1647 1.18774 19.1496 0.962355 19.0623 0.76481C18.9119 0.500515 18.6404 0.378174 18.1771 0.378174C17.7138 0.411963 17.2596 0.531977 16.8348 0.732824C16.5006 0.870885 16.203 1.09435 15.9679 1.38376L14.9555 5.45091Z" fill="white"/>
<path d="M17.1416 13.5692V15.5319C17.2847 15.5236 17.4226 15.4714 17.5389 15.3815C17.8114 15.2139 19.3006 13.9259 19.5132 13.8185C19.7258 13.7111 20.2513 13.3982 20.7011 13.9045C21.1509 14.4107 21.608 15.1452 21.8568 15.4418C22.1055 15.7383 22.1417 15.7598 22.2902 15.9403C22.5907 16.2989 22.9806 16.5581 23.414 16.6875C24.446 16.9731 25.5333 16.9326 26.5442 16.5707C27.9489 16.0937 28.342 15.8747 28.7353 15.3073C29.1287 14.7399 28.9883 13.7265 28.9122 13.5895C28.8674 13.5104 28.8362 13.4234 28.8199 13.3326C28.6703 13.3447 28.5243 13.3885 28.3906 13.4615C28.1739 13.5818 27.873 13.7279 27.612 13.8699C27.1892 14.0446 26.7562 14.1896 26.3157 14.304C26.0725 14.3401 25.8252 14.3299 25.5853 14.2738C25.4095 14.1859 25.2575 14.0513 25.1437 13.883C24.9663 13.5937 24.8068 13.2922 24.6662 12.9805C24.5094 12.643 24.3908 12.2867 24.3128 11.9191C24.2686 11.5661 24.137 11.2323 23.9316 10.9522C23.5688 10.7082 23.1756 10.5202 22.7638 10.3937C22.436 10.2653 22.0763 10.2653 21.7484 10.3937C21.6278 10.4581 21.287 10.6038 21.0943 10.7245C20.9015 10.8452 19.7178 11.627 19.0316 12.1126C18.3454 12.5983 17.7072 13.058 17.5066 13.2259C17.3696 13.3201 17.2465 13.4358 17.1416 13.5692V13.5692Z" fill="white"/>
<path d="M24.022 4.6656C24.022 4.6656 22.8664 5.09103 22.2582 5.59375C21.6501 6.09646 21.608 6.12869 21.5478 6.61879C21.4877 7.1089 21.644 7.68891 22.21 7.85632C22.753 7.98177 23.3141 7.98836 23.8595 7.8757C24.4333 7.74002 24.9784 7.49081 25.4667 7.14089C25.7165 6.89373 25.9206 6.59853 26.0685 6.27065C26.1226 6.18683 26.1858 5.92905 26.3084 5.66146C26.457 5.41635 26.5488 5.13683 26.5764 4.84609C26.5733 4.54956 26.5162 4.20795 25.833 4.21145C25.2094 4.24953 24.5966 4.40319 24.022 4.6656V4.6656Z" fill="white"/>
</svg>
