<svg width="24" height="23" viewBox="0 0 24 23" fill="none" xmlns="http://www.w3.org/2000/svg">
<path d="M9.52572 3.875V6.41667H3.17155V20.3958H17.1507V14.0417H19.6924V21.6667C19.6924 22.0037 19.5585 22.327 19.3202 22.5653C19.0818 22.8036 18.7586 22.9375 18.4216 22.9375H1.90072C1.56367 22.9375 1.24043 22.8036 1.0021 22.5653C0.763774 22.327 0.629883 22.0037 0.629883 21.6667V5.14583C0.629883 4.80879 0.763774 4.48555 1.0021 4.24722C1.24043 4.00889 1.56367 3.875 1.90072 3.875H9.52572ZM23.5049 0.0625V10.2292H20.9632V4.39985L11.0596 14.3047L9.26265 12.5078L19.165 2.60417H13.3382V0.0625H23.5049Z" fill="#F5F5F5"/>
</svg>
